<?xml version="1.0" encoding="UTF-8" standalone="no"?>
<!DOCTYPE svg PUBLIC "-//W3C//DTD SVG 1.1//EN" "http://www.w3.org/Graphics/SVG/1.1/DTD/svg11.dtd">
<svg width="100%" height="100%" viewBox="0 0 243 438" version="1.1" xmlns="http://www.w3.org/2000/svg" xmlns:xlink="http://www.w3.org/1999/xlink" xml:space="preserve" xmlns:serif="http://www.serif.com/" style="fill-rule:evenodd;clip-rule:evenodd;stroke-linejoin:round;stroke-miterlimit:2;">
    <g transform="matrix(4.09557,0,0,4.09557,-396.437,-835.95)">
        <path d="M111.577,266.686L110.727,257.07L99.363,252.495L96.796,254.413L98.134,268.358L107.199,269.835L99.182,275.601L111.253,310.813L114.8,309.597L103.633,277.019L139.418,251.282L138.645,259.726L149.97,264.924L152.625,263.127L152.006,250.644L142.896,248.78L156.021,239.341L143.703,218.216C143.703,218.216 144.919,213.29 144.919,213.29L142.211,211.19L139.88,212.442L134.358,204.111L131.232,206.182L136.862,214.678L135.081,216.504L136.18,219.673L140.545,220.244L151.065,238.286L111.577,266.686ZM107.763,266.128L101.591,265.122C101.591,265.122 100.824,257.125 100.824,257.125C100.824,257.125 107.194,259.69 107.194,259.69L107.763,266.128ZM143.059,252.641L148.405,253.735C148.405,253.735 148.727,260.227 148.727,260.227C148.727,260.227 142.621,257.424 142.621,257.424L143.059,252.641Z"/>
    </g>
</svg>
